<?xml version="1.0" encoding="UTF-8" standalone="no"?>
<!-- Created with Inkscape (http://www.inkscape.org/) -->

<svg
   version="1.1"
   id="svg1"
   width="1821.3333"
   height="1024"
   viewBox="0 0 1821.3333 1024"
   sodipodi:docname="Logo Manphil&amp;Co.ai"
   xmlns:inkscape="http://www.inkscape.org/namespaces/inkscape"
   xmlns:sodipodi="http://sodipodi.sourceforge.net/DTD/sodipodi-0.dtd"
   xmlns="http://www.w3.org/2000/svg"
   xmlns:svg="http://www.w3.org/2000/svg">
  <defs
     id="defs1">
    <clipPath
       clipPathUnits="userSpaceOnUse"
       id="clipPath1">
      <path
         d="M 139.082,500.178 H 275.449 V 337.314 H 139.082 Z"
         transform="matrix(1,0,0,-1,-139.08201,379.36331)"
         id="path1" />
    </clipPath>
    <clipPath
       clipPathUnits="userSpaceOnUse"
       id="clipPath2">
      <path
         d="M 139.082,500.178 H 275.449 V 337.314 H 139.082 Z"
         transform="matrix(1.3333333,0,0,-1.3333333,0,1024)"
         id="path2" />
    </clipPath>
    <clipPath
       clipPathUnits="userSpaceOnUse"
       id="clipPath3">
      <path
         d="M 139.082,500.178 H 1134.7 V 337.314 H 139.082 Z"
         transform="matrix(1.3333333,0,0,-1.3333333,0,1024)"
         id="path3" />
    </clipPath>
    <clipPath
       clipPathUnits="userSpaceOnUse"
       id="clipPath4">
      <path
         d="m 275.482,480.042 h 465.83 v -135.72 h -465.83 z"
         transform="matrix(1,0,0,-1,-275.48191,379.36331)"
         id="path4" />
    </clipPath>
    <clipPath
       clipPathUnits="userSpaceOnUse"
       id="clipPath5">
      <path
         d="m 275.482,480.042 h 465.83 v -135.72 h -465.83 z"
         transform="matrix(1.3333333,0,0,-1.3333333,0,1024)"
         id="path5" />
    </clipPath>
    <clipPath
       clipPathUnits="userSpaceOnUse"
       id="clipPath6">
      <path
         d="M 139.082,500.178 H 1134.7 V 337.314 H 139.082 Z"
         transform="matrix(1.3333333,0,0,-1.3333333,0,1024)"
         id="path6" />
    </clipPath>
    <clipPath
       clipPathUnits="userSpaceOnUse"
       id="clipPath7">
      <path
         d="M 755.782,500.178 H 1010.95 V 337.314 H 755.782 Z"
         transform="matrix(1,0,0,-1,-755.78222,379.36331)"
         id="path7" />
    </clipPath>
    <clipPath
       clipPathUnits="userSpaceOnUse"
       id="clipPath8">
      <path
         d="M 755.782,500.178 H 1010.95 V 337.314 H 755.782 Z"
         transform="matrix(1.3333333,0,0,-1.3333333,0,1024)"
         id="path8" />
    </clipPath>
    <clipPath
       clipPathUnits="userSpaceOnUse"
       id="clipPath9">
      <path
         d="M 139.082,500.178 H 1134.7 V 337.314 H 139.082 Z"
         transform="matrix(1.3333333,0,0,-1.3333333,0,1024)"
         id="path9" />
    </clipPath>
    <clipPath
       clipPathUnits="userSpaceOnUse"
       id="clipPath10">
      <path
         d="M 1010.98,480.042 H 1134.7 V 344.322 H 1010.98 Z"
         transform="matrix(1,0,0,-1,-1010.982,379.36331)"
         id="path10" />
    </clipPath>
    <clipPath
       clipPathUnits="userSpaceOnUse"
       id="clipPath11">
      <path
         d="M 1010.98,480.042 H 1134.7 V 344.322 H 1010.98 Z"
         transform="matrix(1.3333333,0,0,-1.3333333,0,1024)"
         id="path11" />
    </clipPath>
    <clipPath
       clipPathUnits="userSpaceOnUse"
       id="clipPath12">
      <path
         d="M 139.082,500.178 H 1134.7 V 337.314 H 139.082 Z"
         transform="matrix(1.3333333,0,0,-1.3333333,0,1024)"
         id="path12" />
    </clipPath>
    <clipPath
       clipPathUnits="userSpaceOnUse"
       id="clipPath20">
      <path
         d="M 0,768 H 1366 V 0 H 0 Z"
         transform="matrix(1.3333333,0,0,-1.3333333,0,1024)"
         id="path20" />
    </clipPath>
  </defs>
  <sodipodi:namedview
     id="namedview1"
     pagecolor="#ffffff"
     bordercolor="#000000"
     borderopacity="0.25"
     inkscape:showpageshadow="2"
     inkscape:pageopacity="0.0"
     inkscape:pagecheckerboard="0"
     inkscape:deskcolor="#d1d1d1">
    <inkscape:page
       x="0"
       y="0"
       inkscape:label="1"
       id="page1"
       width="1821.3333"
       height="1024"
       margin="449.75201 308.39999 357.09601 185.44267"
       bleed="0" />
  </sodipodi:namedview>
  <g
     id="layer-MC0"
     inkscape:groupmode="layer"
     inkscape:label="Layer 1">
    <g
       id="g20"
       clip-path="url(#clipPath20)">
      <g
         clip-path="url(#clipPath3)"
         id="g13">
        <g
           clip-path="url(#clipPath2)"
           id="g12">
          <text
             xml:space="preserve"
             transform="matrix(1.3333333,0,0,1.3333333,185.44267,518.18227)"
             clip-path="url(#clipPath1)"
             id="text12"><tspan
               style="font-variant:normal;font-weight:normal;font-stretch:normal;font-size:144px;font-family:DTLHaarlemmerD;writing-mode:lr-tb;fill:#1c355e;fill-opacity:1;fill-rule:nonzero;stroke:none"
               x="0"
               y="0"
               id="tspan12">M</tspan></text>
        </g>
      </g>
      <g
         clip-path="url(#clipPath6)"
         id="g15">
        <g
           clip-path="url(#clipPath5)"
           id="g14">
          <text
             xml:space="preserve"
             transform="matrix(1.3333333,0,0,1.3333333,367.3092,518.18227)"
             clip-path="url(#clipPath4)"
             id="text13"><tspan
               style="font-variant:normal;font-weight:normal;font-stretch:normal;font-size:120px;font-family:DTLHaarlemmerD;writing-mode:lr-tb;fill:#1c355e;fill-opacity:1;fill-rule:nonzero;stroke:none"
               x="0"
               dx="0 0 0 0 4.6680002 4.6799998"
               y="0"
               id="tspan13">ANPHIL</tspan></text>
        </g>
      </g>
      <g
         clip-path="url(#clipPath9)"
         id="g17">
        <g
           clip-path="url(#clipPath8)"
           id="g16">
          <text
             xml:space="preserve"
             transform="matrix(1.3333333,0,0,1.3333333,1007.7096,518.18227)"
             clip-path="url(#clipPath7)"
             id="text15"><tspan
               style="font-variant:normal;font-weight:normal;font-stretch:normal;font-size:144px;font-family:DTLHaarlemmerD;writing-mode:lr-tb;fill:#1c355e;fill-opacity:1;fill-rule:nonzero;stroke:none"
               x="0"
               y="0"
               id="tspan15">&amp; C</tspan></text>
        </g>
      </g>
      <g
         clip-path="url(#clipPath12)"
         id="g19">
        <g
           clip-path="url(#clipPath11)"
           id="g18">
          <text
             xml:space="preserve"
             transform="matrix(1.3333333,0,0,1.3333333,1347.9759,518.18227)"
             clip-path="url(#clipPath10)"
             id="text17"><tspan
               style="font-variant:normal;font-weight:normal;font-stretch:normal;font-size:120px;font-family:DTLHaarlemmerD;writing-mode:lr-tb;fill:#1c355e;fill-opacity:1;fill-rule:nonzero;stroke:none"
               x="0"
               dx="0 -0.60000002"
               y="0"
               id="tspan17">O.</tspan></text>
        </g>
      </g>
    </g>
  </g>
</svg>
